<?xml version="1.0" standalone="no"?><!DOCTYPE svg PUBLIC "-//W3C//DTD SVG 1.1//EN" "http://www.w3.org/Graphics/SVG/1.1/DTD/svg11.dtd"><svg t="1725636476238" class="icon" viewBox="0 0 1024 1024" version="1.1" xmlns="http://www.w3.org/2000/svg" p-id="7827" xmlns:xlink="http://www.w3.org/1999/xlink" width="200" height="200"><path d="M549.546667 604.16c-3.413333 0-10.24 0-13.653334-3.413333-6.826667-6.826667-6.826667-17.066667 0-23.893334l58.026667-58.026666c6.826667-6.826667 17.066667-6.826667 23.893333 0s6.826667 17.066667 0 23.893333l-58.026666 58.026667c-3.413333 3.413333-6.826667 3.413333-10.24 3.413333z" fill="#cdcdcd" p-id="7828"></path><path d="M457.386667 624.64c-92.16 0-191.146667-40.96-249.173334-98.986667-95.573333-95.573333-102.4-259.413333-13.653333-348.16 88.746667-88.746667 252.586667-81.92 348.16 13.653334 81.92 81.92 133.12 245.76 78.506667 348.16-3.413333 6.826667-13.653333 10.24-23.893334 6.826666-6.826667-3.413333-10.24-13.653333-6.826666-23.893333 44.373333-88.746667 0-238.933333-71.68-310.613333-81.92-81.92-221.866667-88.746667-300.373334-13.653334-75.093333 75.093333-71.68 215.04 13.653334 300.373334 71.68 71.68 221.866667 119.466667 310.613333 71.68 6.826667-3.413333 17.066667 0 23.893333 6.826666 3.413333 6.826667 0 17.066667-6.826666 23.893334-30.72 17.066667-64.853333 23.893333-102.4 23.893333z" fill="#cdcdcd" p-id="7829"></path><path d="M628.053333 624.64h-170.666666c-10.24 0-17.066667-6.826667-17.066667-17.066667s6.826667-17.066667 17.066667-17.066666h153.6v-153.6c0-10.24 6.826667-17.066667 17.066666-17.066667s17.066667 6.826667 17.066667 17.066667v170.666666c0 10.24-10.24 17.066667-17.066667 17.066667z" fill="#cdcdcd" p-id="7830"></path><path d="M866.986667 931.84c-6.826667 0-10.24-3.413333-13.653334-6.826667-116.053333-143.36-262.826667-300.373333-293.546666-300.373333-10.24 0-17.066667-6.826667-17.066667-17.066667s6.826667-17.066667 17.066667-17.066666c58.026667 0 238.933333 211.626667 307.2 300.373333l40.96-40.96c-119.466667-102.4-300.373333-266.24-300.373334-307.2 0-10.24 6.826667-17.066667 17.066667-17.066667s17.066667 6.826667 17.066667 17.066667c6.826667 27.306667 157.013333 170.666667 300.373333 293.546667 3.413333 3.413333 6.826667 6.826667 6.826667 13.653333 0 3.413333 0 10.24-3.413334 13.653333l-68.266666 68.266667h-10.24zM525.653333 522.24c-3.413333 0-10.24 0-13.653333-3.413333l-273.066667-273.066667c-6.826667-6.826667-6.826667-17.066667 0-23.893333s17.066667-6.826667 23.893334 0l273.066666 273.066666c6.826667 6.826667 6.826667 17.066667 0 23.893334-3.413333 3.413333-6.826667 3.413333-10.24 3.413333zM559.786667 419.84c-3.413333 0-10.24 0-13.653334-3.413333l-204.8-204.8c-6.826667-6.826667-6.826667-17.066667 0-23.893334s17.066667-6.826667 23.893334 0l204.8 204.8c6.826667 6.826667 6.826667 17.066667 0 23.893334-3.413333 3.413333-6.826667 3.413333-10.24 3.413333zM423.253333 556.373333c-3.413333 0-10.24 0-13.653333-3.413333l-204.8-204.8c-6.826667-6.826667-6.826667-17.066667 0-23.893333s17.066667-6.826667 23.893333 0l204.8 204.8c6.826667 6.826667 6.826667 17.066667 0 23.893333-3.413333 3.413333-6.826667 3.413333-10.24 3.413333z" fill="#cdcdcd" p-id="7831"></path><path d="M218.453333 419.84c-3.413333 0-10.24 0-13.653333-3.413333-6.826667-6.826667-6.826667-17.066667 0-23.893334l204.8-204.8c6.826667-6.826667 17.066667-6.826667 23.893333 0s6.826667 17.066667 0 23.893334l-204.8 204.8c-3.413333 3.413333-6.826667 3.413333-10.24 3.413333zM354.986667 556.373333c-3.413333 0-10.24 0-13.653334-3.413333-6.826667-6.826667-6.826667-17.066667 0-23.893333l204.8-204.8c6.826667-6.826667 17.066667-6.826667 23.893334 0s6.826667 17.066667 0 23.893333l-204.8 204.8c-3.413333 3.413333-6.826667 3.413333-10.24 3.413333zM286.72 488.106667c-3.413333 0-10.24 0-13.653333-3.413334-6.826667-6.826667-6.826667-17.066667 0-23.893333l204.8-204.8c6.826667-6.826667 17.066667-6.826667 23.893333 0s6.826667 17.066667 0 23.893333l-204.8 204.8c-3.413333 3.413333-6.826667 3.413333-10.24 3.413334zM252.586667 931.84c-64.853333 0-119.466667-54.613333-119.466667-119.466667s54.613333-119.466667 119.466667-119.466666 119.466667 54.613333 119.466666 119.466666-54.613333 119.466667-119.466666 119.466667z m0-204.8c-47.786667 0-85.333333 37.546667-85.333334 85.333333s37.546667 85.333333 85.333334 85.333334 85.333333-37.546667 85.333333-85.333334-40.96-85.333333-85.333333-85.333333z" fill="#cdcdcd" p-id="7832"></path><path d="M320.853333 904.533333c-3.413333 0-6.826667 0-10.24-3.413333-23.893333-23.893333-40.96-54.613333-40.96-88.746667s13.653333-64.853333 40.96-88.746666c6.826667-6.826667 17.066667-6.826667 23.893334 0 23.893333 23.893333 40.96 54.613333 40.96 88.746666s-13.653333 64.853333-40.96 88.746667c-6.826667 3.413333-10.24 3.413333-13.653334 3.413333z m0-143.36c-10.24 13.653333-17.066667 30.72-17.066666 51.2s6.826667 37.546667 17.066666 51.2c10.24-13.653333 17.066667-30.72 17.066667-51.2s-6.826667-34.133333-17.066667-51.2zM184.32 904.533333c-3.413333 0-6.826667 0-10.24-3.413333-23.893333-23.893333-40.96-54.613333-40.96-88.746667s13.653333-64.853333 40.96-88.746666c6.826667-6.826667 17.066667-6.826667 23.893333 0 23.893333 23.893333 40.96 54.613333 40.96 88.746666s-13.653333 64.853333-40.96 88.746667c-6.826667 3.413333-10.24 3.413333-13.653333 3.413333z m0-143.36c-10.24 13.653333-17.066667 30.72-17.066667 51.2s6.826667 37.546667 17.066667 51.2c10.24-13.653333 17.066667-30.72 17.066667-51.2s-6.826667-34.133333-17.066667-51.2z" fill="#cdcdcd" p-id="7833"></path></svg>